<svg width="24" height="22" viewBox="0 0 24 22" fill="none" xmlns="http://www.w3.org/2000/svg">
<path d="M12 21.3802C11.6726 21.3802 11.3569 21.2608 11.1109 21.0438C10.1817 20.2258 9.28591 19.4571 8.49557 18.779L8.49153 18.7755C6.17437 16.7874 4.17342 15.0705 2.78119 13.3792C1.22489 11.4884 0.5 9.69566 0.5 7.73722C0.5 5.83444 1.14803 4.079 2.3246 2.79404C3.51521 1.49389 5.14889 0.777832 6.92523 0.777832C8.25288 0.777832 9.46876 1.20044 10.539 2.03381C11.0791 2.45447 11.5687 2.9693 12 3.56982C12.4315 2.9693 12.9209 2.45447 13.4612 2.03381C14.5314 1.20044 15.7473 0.777832 17.0749 0.777832C18.8511 0.777832 20.485 1.49389 21.6756 2.79404C22.8521 4.079 23.5 5.83444 23.5 7.73722C23.5 9.69566 22.7753 11.4884 21.219 13.379C19.8268 15.0705 17.826 16.7872 15.5092 18.7751C14.7174 19.4543 13.8202 20.2242 12.889 21.0442C12.6431 21.2608 12.3273 21.3802 12 21.3802ZM6.92523 2.13434C5.52967 2.13434 4.24764 2.69511 3.31499 3.71346C2.36847 4.74718 1.84713 6.17613 1.84713 7.73722C1.84713 9.38436 2.45515 10.8575 3.81843 12.5136C5.13608 14.1145 7.09597 15.7961 9.36523 17.7432L9.36944 17.7467C10.1628 18.4275 11.0621 19.1992 11.9981 20.0232C12.9397 19.1976 13.8404 18.4246 14.6353 17.7428C16.9044 15.7957 18.8641 14.1145 20.1817 12.5136C21.5448 10.8575 22.1529 9.38436 22.1529 7.73722C22.1529 6.17613 21.6315 4.74718 20.685 3.71346C19.7525 2.69511 18.4703 2.13434 17.0749 2.13434C16.0526 2.13434 15.114 2.46154 14.2852 3.10676C13.5466 3.68201 13.0322 4.4092 12.7305 4.91803C12.5754 5.17968 12.3023 5.33586 12 5.33586C11.6977 5.33586 11.4246 5.17968 11.2695 4.91803C10.968 4.4092 10.4535 3.68201 9.71478 3.10676C8.886 2.46154 7.94738 2.13434 6.92523 2.13434Z" fill="#F94144"/>
</svg>
