<svg width="12" height="12" viewBox="0 0 12 12" fill="none" xmlns="http://www.w3.org/2000/svg">
<path d="M6.81 9.86C7.56 9.86 8.205 9.695 8.745 9.365C9.295 9.035 9.715 8.565 10.005 7.955H11.625C11.245 8.955 10.63 9.73 9.78 10.28C8.93 10.82 7.94 11.09 6.81 11.09C5.63 11.09 4.59 10.765 3.69 10.115C2.79 9.465 2.17 8.595 1.83 7.505H0.375V6.545H1.62C1.59 6.285 1.575 6.025 1.575 5.765C1.575 5.515 1.59 5.27 1.62 5.03H0.375V4.085H1.815C2.035 3.355 2.385 2.715 2.865 2.165C3.355 1.605 3.935 1.175 4.605 0.875C5.285 0.565 6.02 0.41 6.81 0.41C7.94 0.41 8.93 0.685 9.78 1.235C10.63 1.785 11.245 2.565 11.625 3.575H10.005C9.715 2.955 9.3 2.48 8.76 2.15C8.22 1.82 7.57 1.655 6.81 1.655C5.97 1.655 5.235 1.87 4.605 2.3C3.985 2.73 3.54 3.325 3.27 4.085H6.81V5.03H3.03C3 5.27 2.985 5.515 2.985 5.765C2.985 6.055 3.005 6.315 3.045 6.545H6.81V7.505H3.285C3.575 8.245 4.03 8.825 4.65 9.245C5.28 9.655 6 9.86 6.81 9.86Z" fill="black"/>
</svg>
