<svg width="138" height="58" viewBox="0 0 138 58" fill="none" xmlns="http://www.w3.org/2000/svg">
<path d="M1.8499 0.00201416H0V7.03164H1.8499V0.00201416Z" fill="#333333"/>
<path fill-rule="evenodd" clip-rule="evenodd" d="M2.95996 0.00201416H6.19007L10.105 5.10827H10.1234V0.00201416H12.2068V7.03164H8.97673L5.06176 1.92539H5.0434V7.03164H2.95996V0.00201416Z" fill="#333333"/>
<path fill-rule="evenodd" clip-rule="evenodd" d="M19.092 5.46773C19.2687 5.47065 19.445 5.45125 19.6168 5.41C19.7521 5.3767 19.8755 5.3068 19.9737 5.20795C20.0722 5.09729 20.1417 4.96383 20.1757 4.81961C20.2233 4.61405 20.2453 4.40342 20.2413 4.19248V2.83851C20.2453 2.62756 20.2233 2.41693 20.1757 2.21138C20.1417 2.06716 20.0722 1.93369 19.9737 1.82303C19.8755 1.72418 19.7521 1.65428 19.6168 1.62098C19.445 1.57973 19.2687 1.56033 19.092 1.56325H15.6284V5.46773H19.092ZM19.706 0.00199086C20.1558 -0.00615357 20.605 0.0387626 21.0443 0.135812C21.3701 0.207595 21.6741 0.356018 21.9312 0.56877C22.1611 0.77193 22.3293 1.0356 22.4166 1.32972C22.5234 1.69248 22.5738 2.06947 22.5662 2.44753V4.58345C22.5739 4.96065 22.5234 5.33679 22.4166 5.69863C22.33 5.99382 22.1617 6.25852 21.9312 6.46221C21.6746 6.67515 21.3703 6.8228 21.0443 6.89254C20.6053 6.99191 20.156 7.03773 19.706 7.02899H13.3167V0.00199086H19.706Z" fill="#333333"/>
<path fill-rule="evenodd" clip-rule="evenodd" d="M35.3634 3.50764L32.4061 0.00201416H34.9776L36.9928 2.45805L39.0081 0.00201416H41.5769L38.6223 3.50764L41.8026 7.03164H39.1314L36.9928 4.47851L34.8517 7.03164H32.1831L35.3634 3.50764Z" fill="#333333"/>
<path fill-rule="evenodd" clip-rule="evenodd" d="M29.8924 2.13264C29.8419 1.98314 29.7407 1.85598 29.6064 1.77315C29.4355 1.67658 29.2457 1.61838 29.0501 1.60259C28.8166 1.57635 28.0005 1.56323 27.6384 1.56323C27.2317 1.56323 26.4917 1.57635 26.2556 1.60259C26.0635 1.61522 25.8772 1.67371 25.7124 1.77315C25.5888 1.8586 25.501 1.98657 25.4658 2.13264C25.4221 2.32984 25.4028 2.53163 25.408 2.73353H29.9685C29.9756 2.53044 29.9499 2.32755 29.8924 2.13264ZM23.5188 1.56323C23.6285 1.19772 23.831 0.86685 24.1065 0.602859C24.3637 0.371084 24.675 0.207754 25.0118 0.127921C25.3947 0.0400794 25.7866 -0.00219627 26.1795 0.00197132H28.318C28.8517 -0.0047304 29.3848 0.0374279 29.9108 0.127921C30.3039 0.190326 30.6764 0.345982 30.9971 0.581867C31.2885 0.815219 31.5047 1.12914 31.619 1.48451C31.7651 1.95567 31.8325 2.44772 31.8184 2.94082V4.09012H25.3897V4.50471C25.4631 5.42572 26.1768 5.42572 26.825 5.42572H28.4256C28.6748 5.43268 28.924 5.41067 29.1682 5.36012C29.3111 5.33136 29.4462 5.2723 29.5644 5.18694C29.6452 5.11991 29.7007 5.02736 29.7218 4.92454C29.7421 4.83058 29.7518 4.73465 29.7507 4.63853H31.8131V4.93242C31.8282 5.29791 31.7439 5.66064 31.5691 5.982C31.4113 6.24976 31.1824 6.46863 30.9079 6.61438C30.6022 6.77485 30.2711 6.88137 29.9291 6.92926C29.5348 6.98852 29.1366 7.01747 28.7379 7.01585H26.4812C26.0963 7.01569 25.712 6.98498 25.3319 6.92401C24.964 6.86508 24.6157 6.71837 24.3165 6.4963C23.9921 6.24035 23.7406 5.90377 23.587 5.52019C23.3793 4.96551 23.2848 4.3749 23.3088 3.78312V3.12712C23.2941 2.5983 23.3632 2.07047 23.5135 1.56323H23.5188Z" fill="#333333"/>
<path d="M61.2198 37.9053V1.36386C61.2198 0.492698 61.7131 0.00201416 62.5842 0.00201416H68.0369C68.9106 0.00201416 69.4013 0.492698 69.4013 1.36386V37.9053C69.4013 38.7765 68.9106 39.2671 68.0369 39.2671H62.5842C61.7131 39.275 61.2198 38.7765 61.2198 37.9053Z" fill="#F9C74F"/>
<path d="M24.8149 15.5281C23.4608 14.1583 21.8466 13.0729 20.0672 12.3357C18.2878 11.5985 16.3789 11.2243 14.4528 11.2352C6.43398 11.2352 0 17.5065 0 25.633C0 33.7594 6.43398 40.0307 14.4528 40.0307C16.3789 40.0416 18.2878 39.6674 20.0672 38.9303C21.8466 38.1931 23.4608 37.1077 24.8149 35.7379C27.437 33.0286 28.903 29.4059 28.903 25.6356C28.903 21.8652 27.437 18.2426 24.8149 15.5333V15.5281ZM14.4528 32.0591C10.9079 32.0591 8.18155 29.4955 8.18155 25.6225C8.18155 21.7495 10.9079 19.1885 14.4528 19.1885C17.9978 19.1885 20.7241 21.7495 20.7241 25.6225C20.7241 29.4955 17.9978 32.0696 14.4528 32.0696V32.0591Z" fill="#F94144"/>
<path d="M34.0434 35.7379C35.3975 37.1077 37.0117 38.1931 38.7911 38.9303C40.5706 39.6674 42.4794 40.0416 44.4055 40.0307C46.5739 40.0312 48.7155 39.5518 50.6768 38.6269V25.654C50.6768 29.5138 47.9452 32.0696 44.4055 32.0696C40.8657 32.0696 38.1342 29.506 38.1342 25.633C38.1342 21.76 40.8605 19.199 44.4055 19.199C47.9504 19.199 50.6663 21.7521 50.6768 25.6146V12.6391C48.716 11.7126 46.574 11.2332 44.4055 11.2352C42.4794 11.2243 40.5706 11.5985 38.7911 12.3357C37.0117 13.0729 35.3975 14.1583 34.0434 15.5281C31.4225 18.238 29.9574 21.8604 29.9574 25.6303C29.9574 29.4003 31.4225 33.0227 34.0434 35.7326" fill="#577590"/>
<path d="M57.4991 11.2352H52.0465C51.2908 11.2352 50.6768 12.5865 50.6768 12.6075V12.639C53.1243 13.8142 55.19 15.6569 56.6358 17.9549C58.0816 20.2529 58.8487 22.9127 58.8487 25.6277C58.8487 28.3427 58.0816 31.0025 56.6358 33.3005C55.19 35.5985 53.1243 37.4412 50.6768 38.6164V42.0485C50.6768 46.6483 47.9558 49.2146 44.4134 49.2146C41.1675 49.2146 38.6197 47.0787 38.1998 43.7646C38.1654 43.4937 38.0334 43.2447 37.8286 43.0641C37.6239 42.8834 37.3603 42.7836 37.0873 42.7832H31.3906C31.1999 42.7831 31.0113 42.8228 30.8369 42.8999C30.6625 42.977 30.5062 43.0897 30.3779 43.2308C30.2497 43.3719 30.1523 43.5383 30.0922 43.7192C30.0321 43.9002 30.0105 44.0917 30.0288 44.2815C30.7635 51.6654 36.8957 57.1705 44.4134 57.1705C51.7028 57.1705 57.6907 51.9829 58.7035 44.9323C58.8099 44.2209 58.8617 43.5025 58.8584 42.7832V12.5944C58.8584 12.2339 58.7152 11.8882 58.4603 11.6333C58.2053 11.3784 57.8596 11.2352 57.4991 11.2352Z" fill="#F8961E"/>
<path d="M58.8583 25.6304C58.8806 22.9087 58.1216 20.2378 56.6714 17.9346C55.2212 15.6314 53.1407 13.7926 50.6768 12.6364V38.6138C53.1391 37.4584 55.2185 35.6212 56.6686 33.32C58.1187 31.0189 58.8786 28.3502 58.8583 25.6304Z" fill="#90BE6D"/>
<path d="M92.4873 25.6303C92.4873 29.5033 89.761 32.0669 86.216 32.0669C82.671 32.0669 79.9447 29.5033 79.9447 25.6303C79.9447 21.7573 82.671 19.1963 86.216 19.1963C89.761 19.1963 92.4873 21.7573 92.4873 25.6303V13.749C92.4846 13.391 92.5144 13.0336 92.5765 12.681C90.5914 11.7286 88.4177 11.2345 86.216 11.2352C78.1971 11.2352 71.7631 17.5065 71.7631 25.6329C71.7631 33.7594 78.1971 40.0307 86.216 40.0307C88.493 40.032 90.739 39.5029 92.7759 38.4852C92.5551 37.9355 92.4532 37.3453 92.4768 36.7533L92.4873 25.6303Z" fill="#29ABE2"/>
<path d="M99.3044 11.2352H93.8518C93.1958 11.2352 92.755 11.76 92.5765 12.681C95.0167 13.8471 97.0739 15.6846 98.5072 17.978C99.9404 20.2715 100.69 22.9259 100.669 25.6303V13.749C100.669 12.1405 100.176 11.2352 99.3044 11.2352Z" fill="#43AA8B"/>
<path d="M92.7864 38.4878C93.0173 38.9916 93.3742 39.275 93.8518 39.275H99.3044C100.176 39.275 100.669 38.3697 100.669 36.7612V25.6303C100.692 28.2968 99.9656 30.9162 98.5719 33.1897C97.1781 35.4631 95.1734 37.2989 92.7864 38.4878Z" fill="#43AA8B"/>
<path d="M92.5763 12.681C92.5143 13.0336 92.4844 13.391 92.4871 13.749V36.7534C92.4635 37.3453 92.5655 37.9355 92.7862 38.4852C95.1754 37.2701 97.1785 35.413 98.5706 33.1224C99.9627 30.8318 100.689 28.1985 100.667 25.5181C100.645 22.8378 99.8763 20.2166 98.4472 17.949C97.018 15.6814 94.985 13.8571 92.5763 12.681Z" fill="#662D91"/>
<path d="M125.62 31.0856C125.62 37.3595 120.278 40.0307 114.277 40.0307C108.714 40.0307 103.697 37.5222 103.044 31.7416C102.933 30.8153 103.479 30.3246 104.355 30.3246H109.698C110.517 30.3246 110.789 30.7602 111.173 31.4687C111.608 32.3949 112.645 32.9407 114.279 32.9407C116.57 32.9407 117.444 32.1771 117.444 31.0856C117.444 27.1496 103.209 30.7602 103.209 20.1803C103.209 14.0166 108.554 11.2352 114.279 11.2352C119.351 11.2352 124.316 13.7437 124.969 19.5243C125.08 20.4532 124.534 20.9439 123.657 20.9439H118.32C117.504 20.9439 117.231 20.5057 116.848 19.7421C116.468 18.871 115.536 18.3252 114.285 18.3252C112.267 18.3252 111.398 19.0888 111.398 20.1803C111.388 24.216 125.62 20.4532 125.62 31.0856Z" fill="#90BE6D"/>
<path d="M127.982 7.36486V2.45541C127.982 1.58425 128.475 1.09094 129.346 1.09094H134.801C135.673 1.09094 136.163 1.58425 136.163 2.45541V7.36486C136.163 8.23602 135.673 8.72671 134.801 8.72671H129.341C128.475 8.72671 127.982 8.23602 127.982 7.36486Z" fill="#F9C74F"/>
<path d="M129.346 12.0014H134.799C135.16 12.0014 135.506 12.1449 135.762 12.4003C136.017 12.6557 136.161 13.0021 136.161 13.3633V37.9053C136.161 38.2665 136.017 38.6129 135.762 38.8683C135.506 39.1237 135.16 39.2671 134.799 39.2671H129.346C128.985 39.2671 128.639 39.1237 128.383 38.8683C128.128 38.6129 127.984 38.2665 127.984 37.9053V13.3633C127.985 13.0023 128.129 12.6563 128.384 12.4011C128.639 12.1458 128.985 12.0021 129.346 12.0014Z" fill="#F94144"/>
</svg>
