<svg width="107" height="45" viewBox="0 0 107 45" fill="none" xmlns="http://www.w3.org/2000/svg">
<path d="M1.43434 0.00158691H0V5.45209H1.43434V0.00158691Z" fill="#333333"/>
<path fill-rule="evenodd" clip-rule="evenodd" d="M2.29504 0.00158691H4.79955L7.83507 3.96078H7.84931V0.00158691H9.46473V5.45209H6.96022L3.9247 1.4929H3.91046V5.45209H2.29504V0.00158691Z" fill="#333333"/>
<path fill-rule="evenodd" clip-rule="evenodd" d="M14.8032 4.23951C14.9402 4.24177 15.0769 4.22673 15.2101 4.19475C15.315 4.16893 15.4107 4.11473 15.4868 4.03809C15.5632 3.95229 15.6171 3.8488 15.6435 3.73698C15.6803 3.5776 15.6974 3.41429 15.6943 3.25073V2.20091C15.6974 2.03735 15.6803 1.87403 15.6435 1.71466C15.6171 1.60283 15.5632 1.49935 15.4868 1.41355C15.4107 1.33691 15.315 1.2827 15.2101 1.25689C15.0769 1.2249 14.9402 1.20986 14.8032 1.21213H12.1176V4.23951H14.8032ZM15.2793 0.00158178C15.628 -0.0047331 15.9763 0.0300932 16.3169 0.105342C16.5695 0.161 16.8053 0.276081 17.0046 0.441041C17.1828 0.598564 17.3132 0.803003 17.3809 1.03105C17.4637 1.31232 17.5028 1.60463 17.4969 1.89776V3.55387C17.5029 3.84634 17.4638 4.13799 17.3809 4.41855C17.3138 4.64742 17.1833 4.85266 17.0046 5.01059C16.8056 5.1757 16.5697 5.29018 16.3169 5.34426C15.9766 5.4213 15.6282 5.45683 15.2793 5.45005H10.3252V0.00158178H15.2793Z" fill="#333333"/>
<path fill-rule="evenodd" clip-rule="evenodd" d="M27.4195 2.71972L25.1265 0.00158691H27.1204L28.6829 1.90591L30.2454 0.00158691H32.2372L29.9463 2.71972L32.4122 5.45209H30.341L28.6829 3.4725L27.0227 5.45209H24.9536L27.4195 2.71972Z" fill="#333333"/>
<path fill-rule="evenodd" clip-rule="evenodd" d="M23.1774 1.65355C23.1383 1.53763 23.0598 1.43904 22.9557 1.37482C22.8232 1.29994 22.676 1.25481 22.5243 1.24257C22.3433 1.22223 21.7105 1.21206 21.4298 1.21206C21.1144 1.21206 20.5407 1.22223 20.3576 1.24257C20.2086 1.25237 20.0642 1.29772 19.9364 1.37482C19.8406 1.44107 19.7725 1.54029 19.7452 1.65355C19.7114 1.80645 19.6963 1.96291 19.7004 2.11946H23.2364C23.2419 1.96199 23.222 1.80467 23.1774 1.65355ZM18.2356 1.21206C18.3206 0.92865 18.4776 0.672106 18.6913 0.467417C18.8906 0.287707 19.132 0.161068 19.3932 0.0991678C19.6901 0.0310588 19.994 -0.00172015 20.2986 0.00151124H21.9567C22.3705 -0.00368502 22.7839 0.029003 23.1917 0.0991678C23.4965 0.147554 23.7853 0.268244 24.034 0.451141C24.2599 0.632073 24.4276 0.875472 24.5161 1.15102C24.6295 1.51633 24.6817 1.89785 24.6708 2.28018V3.17131H19.6862V3.49277C19.7431 4.20689 20.2965 4.20688 20.7991 4.20688H22.0401C22.2334 4.21228 22.4266 4.19521 22.6159 4.15602C22.7267 4.13372 22.8315 4.08793 22.9231 4.02174C22.9857 3.96977 23.0288 3.89801 23.0452 3.81829C23.0609 3.74543 23.0684 3.67105 23.0676 3.59653H24.6667V3.82439C24.6784 4.10778 24.613 4.38903 24.4775 4.6382C24.3551 4.84581 24.1777 5.01552 23.9648 5.12853C23.7278 5.25294 23.471 5.33554 23.2059 5.37267C22.9002 5.41862 22.5914 5.44107 22.2822 5.43981H20.5325C20.2341 5.43968 19.9361 5.41587 19.6414 5.3686C19.3561 5.32291 19.0861 5.20915 18.8541 5.03697C18.6026 4.83851 18.4075 4.57754 18.2885 4.28013C18.1274 3.85005 18.0541 3.39211 18.0728 2.93327V2.42464C18.0614 2.0146 18.115 1.60535 18.2315 1.21206H18.2356Z" fill="#333333"/>
<path d="M47.4675 29.3904V1.05751C47.4675 0.382045 47.85 0.00158691 48.5255 0.00158691H52.7532C53.4307 0.00158691 53.8112 0.382045 53.8112 1.05751V29.3904C53.8112 30.0658 53.4307 30.4463 52.7532 30.4463H48.5255C47.85 30.4524 47.4675 30.0658 47.4675 29.3904Z" fill="#F9C74F"/>
<path d="M19.2405 12.0399C18.1906 10.9778 16.9391 10.1362 15.5594 9.56461C14.1796 8.99302 12.6996 8.70292 11.2062 8.71136C4.98867 8.71136 0 13.5739 0 19.8748C0 26.1758 4.98867 31.0383 11.2062 31.0383C12.6996 31.0467 14.1796 30.7566 15.5594 30.185C16.9391 29.6134 18.1906 28.7719 19.2405 27.7098C21.2736 25.6091 22.4103 22.8003 22.4103 19.8769C22.4103 16.9535 21.2736 14.1446 19.2405 12.0439V12.0399ZM11.2062 24.8574C8.45754 24.8574 6.34366 22.8697 6.34366 19.8667C6.34366 16.8637 8.45754 14.878 11.2062 14.878C13.9548 14.878 16.0687 16.8637 16.0687 19.8667C16.0687 22.8697 13.9548 24.8655 11.2062 24.8655V24.8574Z" fill="#F94144"/>
<path d="M26.396 27.7098C27.4459 28.7719 28.6975 29.6134 30.0772 30.185C31.4569 30.7566 32.9369 31.0467 34.4303 31.0383C36.1116 31.0387 37.7722 30.667 39.2929 29.9498V19.8911C39.2929 22.8839 37.1749 24.8655 34.4303 24.8655C31.6857 24.8655 29.5678 22.8778 29.5678 19.8748C29.5678 16.8719 31.6817 14.8862 34.4303 14.8862C37.179 14.8862 39.2847 16.8658 39.2929 19.8606V9.79984C37.7726 9.08152 36.1118 8.70975 34.4303 8.71136C32.9369 8.70292 31.4569 8.99302 30.0772 9.56461C28.6975 10.1362 27.4459 10.9778 26.396 12.0399C24.3639 14.141 23.2278 16.9497 23.2278 19.8728C23.2278 22.7959 24.3639 25.6046 26.396 27.7057" fill="#577590"/>
<path d="M44.5826 8.71143H40.3549C39.7689 8.71143 39.2929 9.75921 39.2929 9.77548V9.7999C41.1906 10.7111 42.7922 12.1399 43.9132 13.9216C45.0343 15.7034 45.6291 17.7657 45.6291 19.8708C45.6291 21.9759 45.0343 24.0382 43.9132 25.82C42.7922 27.6018 41.1906 29.0306 39.2929 29.9417V32.6029C39.2929 36.1694 37.1831 38.1592 34.4364 38.1592C31.9197 38.1592 29.9442 36.5031 29.6187 33.9335C29.592 33.7235 29.4897 33.5304 29.3309 33.3903C29.1721 33.2503 28.9678 33.1729 28.756 33.1726H24.3391C24.1912 33.1725 24.045 33.2033 23.9098 33.2631C23.7745 33.3228 23.6533 33.4102 23.5539 33.5196C23.4544 33.629 23.379 33.758 23.3323 33.8983C23.2857 34.0386 23.269 34.1871 23.2832 34.3343C23.8528 40.0595 28.6075 44.3279 34.4364 44.3279C40.0884 44.3279 44.7312 40.3056 45.5165 34.8389C45.599 34.2873 45.6391 33.7303 45.6365 33.1726V9.76531C45.6365 9.48581 45.5255 9.21774 45.3279 9.0201C45.1302 8.82246 44.8621 8.71143 44.5826 8.71143Z" fill="#F8961E"/>
<path d="M45.6365 19.8728C45.6538 17.7626 45.0653 15.6917 43.9409 13.9059C42.8165 12.12 41.2033 10.6943 39.2928 9.79785V29.9397C41.202 29.0438 42.8143 27.6194 43.9387 25.8351C45.063 24.0509 45.6522 21.9817 45.6365 19.8728Z" fill="#90BE6D"/>
<path d="M71.7111 19.8729C71.7111 22.8758 69.5972 24.8636 66.8486 24.8636C64.0999 24.8636 61.9861 22.8758 61.9861 19.8729C61.9861 16.8699 64.0999 14.8842 66.8486 14.8842C69.5972 14.8842 71.7111 16.8699 71.7111 19.8729V10.6605C71.709 10.383 71.7322 10.1058 71.7803 9.83245C70.2411 9.09402 68.5557 8.71091 66.8486 8.71143C60.6311 8.71143 55.6424 13.574 55.6424 19.8749C55.6424 26.1758 60.6311 31.0384 66.8486 31.0384C68.6141 31.0394 70.3556 30.6291 71.9349 29.84C71.7637 29.4138 71.6847 28.9562 71.703 28.4972L71.7111 19.8729Z" fill="#29ABE2"/>
<path d="M76.9969 8.71143H72.7692C72.2605 8.71143 71.9187 9.11833 71.7804 9.83245C73.6724 10.7366 75.2675 12.1613 76.3788 13.9396C77.4901 15.7178 78.0715 17.776 78.0549 19.8729V10.6605C78.0549 9.41334 77.6724 8.71143 76.9969 8.71143Z" fill="#43AA8B"/>
<path d="M71.9431 29.842C72.1222 30.2326 72.3989 30.4524 72.7691 30.4524H76.9969C77.6724 30.4524 78.0549 29.7504 78.0549 28.5033V19.8728C78.073 21.9403 77.5096 23.9713 76.4289 25.734C75.3483 27.4968 73.7939 28.9202 71.9431 29.842Z" fill="#43AA8B"/>
<path d="M71.7802 9.8324C71.7321 10.1057 71.7089 10.3829 71.711 10.6605V28.4972C71.6927 28.9561 71.7718 29.4137 71.943 29.84C73.7954 28.8978 75.3486 27.4579 76.4279 25.6819C77.5073 23.9058 78.0701 21.864 78.0532 19.7858C78.0363 17.7076 77.4403 15.6752 76.3322 13.917C75.2241 12.1588 73.6478 10.7443 71.7802 9.8324Z" fill="#662D91"/>
<path d="M97.4011 24.1026C97.4011 28.9672 93.2588 31.0384 88.6059 31.0384C84.2927 31.0384 80.4027 29.0934 79.8961 24.6113C79.8106 23.8931 80.2338 23.5126 80.9133 23.5126H85.0556C85.6904 23.5126 85.902 23.8504 86.199 24.3997C86.5368 25.1179 87.3404 25.5411 88.6079 25.5411C90.384 25.5411 91.0615 24.949 91.0615 24.1026C91.0615 21.0509 80.0242 23.8504 80.0242 15.6471C80.0242 10.868 84.1686 8.71143 88.6079 8.71143C92.5406 8.71143 96.39 10.6564 96.8966 15.1385C96.982 15.8587 96.5589 16.2392 95.8793 16.2392H91.7411C91.1083 16.2392 90.8968 15.8994 90.5997 15.3074C90.3047 14.6319 89.5824 14.2087 88.612 14.2087C87.0474 14.2087 86.374 14.8008 86.374 15.6471C86.3659 18.7762 97.4011 15.8587 97.4011 24.1026Z" fill="#90BE6D"/>
<path d="M99.2322 5.71051V1.9039C99.2322 1.22844 99.6147 0.845947 100.29 0.845947H104.52C105.195 0.845947 105.576 1.22844 105.576 1.9039V5.71051C105.576 6.38597 105.195 6.76643 104.52 6.76643H100.286C99.6147 6.76643 99.2322 6.38597 99.2322 5.71051Z" fill="#F9C74F"/>
<path d="M100.29 9.30554H104.518C104.798 9.30554 105.066 9.41679 105.265 9.61481C105.463 9.81284 105.574 10.0814 105.574 10.3615V29.3904C105.574 29.6705 105.463 29.939 105.265 30.1371C105.066 30.3351 104.798 30.4463 104.518 30.4463H100.29C100.01 30.4463 99.7415 30.3351 99.5435 30.1371C99.3454 29.939 99.2342 29.6705 99.2342 29.3904V10.3615C99.2347 10.0816 99.3462 9.81332 99.5441 9.61541C99.742 9.4175 100.01 9.30608 100.29 9.30554Z" fill="#F94144"/>
</svg>
