<svg width="96" height="42" viewBox="0 0 96 42" fill="none" xmlns="http://www.w3.org/2000/svg">
<path d="M1.754 0.00146484H0.47998V5.04446H1.754V0.00146484Z" fill="#333333"/>
<path fill-rule="evenodd" clip-rule="evenodd" d="M2.51996 0.00146484H4.74452L7.44074 3.66465H7.45339V0.00146484H8.88825V5.04446H6.66368L3.96746 1.38128H3.95481V5.04446H2.51996V0.00146484Z" fill="#333333"/>
<path fill-rule="evenodd" clip-rule="evenodd" d="M13.6299 3.92248C13.7516 3.92457 13.873 3.91066 13.9914 3.88106C14.0845 3.85718 14.1695 3.80703 14.2371 3.73612C14.305 3.65673 14.3528 3.56098 14.3763 3.45752C14.409 3.31006 14.4242 3.15895 14.4215 3.00762V2.0363C14.4242 1.88497 14.409 1.73386 14.3763 1.5864C14.3528 1.48294 14.305 1.38719 14.2371 1.3078C14.1695 1.23689 14.0845 1.18674 13.9914 1.16286C13.873 1.13326 13.7516 1.11935 13.6299 1.12144H11.2445V3.92248H13.6299ZM14.0528 0.00140534C14.3626 -0.0044374 14.6719 0.0277851 14.9744 0.0974075C15.1988 0.148904 15.4082 0.255381 15.5852 0.408008C15.7436 0.553753 15.8594 0.742907 15.9196 0.953907C15.9931 1.21414 16.0278 1.4846 16.0226 1.75582V3.2881C16.0279 3.5587 15.9931 3.82854 15.9196 4.08813C15.8599 4.29989 15.744 4.48979 15.5852 4.63591C15.4085 4.78867 15.199 4.89459 14.9744 4.94463C14.6721 5.01591 14.3627 5.04878 14.0528 5.04251H9.65247V0.00140534H14.0528Z" fill="#333333"/>
<path fill-rule="evenodd" clip-rule="evenodd" d="M24.8365 2.51637L22.7998 0.00146484H24.5708L25.9587 1.76341L27.3466 0.00146484H29.1157L27.0809 2.51637L29.2711 5.04446H27.4315L25.9587 3.21287L24.4841 5.04446H22.6462L24.8365 2.51637Z" fill="#333333"/>
<path fill-rule="evenodd" clip-rule="evenodd" d="M21.0667 1.52987C21.0319 1.42262 20.9623 1.3314 20.8698 1.27198C20.7521 1.2027 20.6214 1.16095 20.4867 1.14962C20.3258 1.1308 19.7638 1.12139 19.5144 1.12139C19.2343 1.12139 18.7247 1.1308 18.5621 1.14962C18.4298 1.15868 18.3015 1.20064 18.188 1.27198C18.1029 1.33328 18.0424 1.42508 18.0181 1.52987C17.9881 1.67134 17.9747 1.8161 17.9784 1.96094H21.1191C21.124 1.81525 21.1063 1.6697 21.0667 1.52987ZM16.6772 1.12139C16.7528 0.859169 16.8923 0.621806 17.082 0.432421C17.2591 0.266147 17.4735 0.148976 17.7055 0.0917043C17.9692 0.0286876 18.2391 -0.0016406 18.5097 0.00134919H19.9825C20.35 -0.00345856 20.7172 0.0267855 21.0794 0.0917043C21.3502 0.136473 21.6067 0.248139 21.8275 0.417361C22.0282 0.584766 22.1771 0.809967 22.2558 1.06491C22.3565 1.40291 22.4029 1.75591 22.3932 2.10965V2.93415H17.9657V3.23158C18.0163 3.8923 18.5079 3.8923 18.9542 3.8923H20.0566C20.2282 3.8973 20.3998 3.8815 20.568 3.84524C20.6664 3.8246 20.7595 3.78224 20.8409 3.721C20.8965 3.67291 20.9347 3.60652 20.9493 3.53276C20.9632 3.46535 20.9699 3.39653 20.9692 3.32758H22.3896V3.53841C22.3999 3.80061 22.3418 4.06083 22.2215 4.29137C22.1128 4.48346 21.9552 4.64047 21.7661 4.74504C21.5556 4.86015 21.3275 4.93657 21.092 4.97093C20.8205 5.01344 20.5462 5.03421 20.2716 5.03305H18.7175C18.4524 5.03293 18.1877 5.0109 17.926 4.96716C17.6726 4.92488 17.4327 4.81963 17.2266 4.66033C17.0032 4.47671 16.83 4.23525 16.7242 3.96007C16.5812 3.56215 16.5161 3.13845 16.5327 2.71391V2.24331C16.5226 1.86393 16.5701 1.48527 16.6736 1.12139H16.6772Z" fill="#333333"/>
<path d="M42.6418 27.193V0.978439C42.6418 0.353477 42.9815 0.00146484 43.5815 0.00146484H47.3367C47.9384 0.00146484 48.2764 0.353477 48.2764 0.978439V27.193C48.2764 27.8179 47.9384 28.1699 47.3367 28.1699H43.5815C42.9815 28.1756 42.6418 27.8179 42.6418 27.193Z" fill="#F9C74F"/>
<path d="M17.5699 11.1396C16.6374 10.1569 15.5257 9.37829 14.3002 8.84943C13.0747 8.32058 11.7601 8.05217 10.4336 8.05998C4.91104 8.05998 0.47998 12.559 0.47998 18.3888C0.47998 24.2186 4.91104 28.7176 10.4336 28.7176C11.7601 28.7254 13.0747 28.457 14.3002 27.9282C15.5257 27.3993 16.6374 26.6207 17.5699 25.638C19.3757 23.6944 20.3853 21.0955 20.3853 18.3907C20.3853 15.6859 19.3757 13.087 17.5699 11.1434V11.1396ZM10.4336 22.9988C7.99217 22.9988 6.11458 21.1597 6.11458 18.3813C6.11458 15.6028 7.99217 13.7656 10.4336 13.7656C12.875 13.7656 14.7526 15.6028 14.7526 18.3813C14.7526 21.1597 12.875 23.0064 10.4336 23.0064V22.9988Z" fill="#F94144"/>
<path d="M23.9265 25.638C24.859 26.6207 25.9707 27.3993 27.1962 27.9282C28.4217 28.457 29.7363 28.7254 31.0628 28.7176C32.5562 28.718 34.0311 28.3741 35.3818 27.7105V18.4039C35.3818 21.1729 33.5006 23.0064 31.0628 23.0064C28.625 23.0064 26.7438 21.1672 26.7438 18.3888C26.7438 15.6104 28.6214 13.7731 31.0628 13.7731C33.5042 13.7731 35.3746 15.6047 35.3818 18.3756V9.06707C34.0315 8.40247 32.5563 8.05849 31.0628 8.05998C29.7363 8.05217 28.4217 8.32058 27.1962 8.84943C25.9707 9.37829 24.859 10.1569 23.9265 11.1396C22.1215 13.0837 21.1125 15.6824 21.1125 18.3869C21.1125 21.0915 22.1215 23.6901 23.9265 25.6342" fill="#577590"/>
<path d="M40.0805 8.06006H36.3253C35.8049 8.06006 35.382 9.0295 35.382 9.04456V9.06715C37.0676 9.91018 38.4902 11.2322 39.486 12.8807C40.4817 14.5293 41.01 16.4374 41.01 18.3851C41.01 20.3328 40.4817 22.2409 39.486 23.8895C38.4902 25.5381 37.0676 26.86 35.382 27.7031V30.1653C35.382 33.4651 33.508 35.3061 31.0684 35.3061C28.833 35.3061 27.0783 33.7739 26.7892 31.3964C26.7655 31.202 26.6746 31.0234 26.5336 30.8938C26.3925 30.7642 26.211 30.6926 26.023 30.6923H22.0997C21.9684 30.6922 21.8385 30.7208 21.7184 30.776C21.5983 30.8313 21.4906 30.9122 21.4023 31.0134C21.3139 31.1147 21.2469 31.234 21.2055 31.3638C21.1641 31.4936 21.1492 31.631 21.1618 31.7672C21.6678 37.0643 25.891 41.0136 31.0684 41.0136C36.0886 41.0136 40.2125 37.2921 40.91 32.234C40.9833 31.7237 41.0189 31.2083 41.0166 30.6923V9.03515C41.0166 8.77654 40.918 8.52852 40.7424 8.34566C40.5669 8.16279 40.3288 8.06006 40.0805 8.06006Z" fill="#F8961E"/>
<path d="M41.0155 18.3869C41.0308 16.4344 40.5081 14.5183 39.5094 12.8661C38.5106 11.2138 37.0778 9.89462 35.3809 9.06519V27.7011C37.0766 26.8722 38.5087 25.5542 39.5074 23.9034C40.5061 22.2526 41.0294 20.3381 41.0155 18.3869Z" fill="#90BE6D"/>
<path d="M64.1739 18.387C64.1739 21.1654 62.2963 23.0046 59.8549 23.0046C57.4134 23.0046 55.5358 21.1654 55.5358 18.387C55.5358 15.6085 57.4134 13.7713 59.8549 13.7713C62.2963 13.7713 64.1739 15.6085 64.1739 18.387V9.86341C64.172 9.60662 64.1926 9.35018 64.2353 9.09727C62.8682 8.41405 61.3712 8.05958 59.8549 8.06006C54.3323 8.06006 49.9012 12.559 49.9012 18.3889C49.9012 24.2187 54.3323 28.7177 59.8549 28.7177C61.423 28.7187 62.9698 28.339 64.3726 27.6089C64.2206 27.2146 64.1504 26.7912 64.1666 26.3666L64.1739 18.387Z" fill="#29ABE2"/>
<path d="M68.8705 8.06006H65.1153C64.6635 8.06006 64.3599 8.43654 64.2371 9.09727C65.9176 9.93382 67.3344 11.252 68.3215 12.8973C69.3085 14.5426 69.825 16.4469 69.8102 18.387V9.86341C69.8102 8.70949 69.4705 8.06006 68.8705 8.06006Z" fill="#43AA8B"/>
<path d="M64.38 27.6108C64.539 27.9722 64.7848 28.1755 65.1137 28.1755H68.8689C69.4689 28.1755 69.8086 27.5261 69.8086 26.3722V18.387C69.8247 20.2999 69.3243 22.1791 68.3644 23.81C67.4045 25.4409 66.0239 26.7579 64.38 27.6108Z" fill="#43AA8B"/>
<path d="M64.2369 9.09729C64.1942 9.3502 64.1736 9.60664 64.1754 9.86343V26.3666C64.1592 26.7912 64.2294 27.2146 64.3815 27.609C66.0269 26.7373 67.4064 25.405 68.3651 23.7617C69.3239 22.1185 69.8238 20.2294 69.8088 18.3065C69.7937 16.3837 69.2644 14.5033 68.2801 12.8765C67.2959 11.2497 65.8957 9.94098 64.2369 9.09729Z" fill="#662D91"/>
<path d="M86.9956 22.3005C86.9956 26.8014 83.3164 28.7177 79.1835 28.7177C75.3524 28.7177 71.8972 26.9181 71.4472 22.7711C71.3713 22.1066 71.7472 21.7546 72.3508 21.7546H76.03C76.5939 21.7546 76.7818 22.0671 77.0456 22.5754C77.3456 23.2399 78.0594 23.6314 79.1853 23.6314C80.7629 23.6314 81.3647 23.0836 81.3647 22.3005C81.3647 19.4769 71.561 22.0671 71.561 14.4772C71.561 10.0554 75.2421 8.06006 79.1853 8.06006C82.6784 8.06006 86.0975 9.85965 86.5475 14.0066C86.6234 14.673 86.2475 15.025 85.6439 15.025H81.9682C81.4062 15.025 81.2183 14.7106 80.9544 14.1628C80.6924 13.5379 80.0509 13.1463 79.1889 13.1463C77.7992 13.1463 77.2011 13.6941 77.2011 14.4772C77.1938 17.3724 86.9956 14.673 86.9956 22.3005Z" fill="#90BE6D"/>
<path d="M88.6205 5.28345V1.76145C88.6205 1.13649 88.9602 0.782593 89.5602 0.782593H93.3172C93.9171 0.782593 94.2551 1.13649 94.2551 1.76145V5.28345C94.2551 5.90841 93.9171 6.26042 93.3172 6.26042H89.5566C88.9602 6.26042 88.6205 5.90841 88.6205 5.28345Z" fill="#F9C74F"/>
<path d="M89.5617 8.60962H93.3169C93.5656 8.60962 93.8042 8.71255 93.9801 8.89577C94.1559 9.07899 94.2548 9.32748 94.2548 9.58659V27.1928C94.2548 27.4519 94.1559 27.7004 93.9801 27.8837C93.8042 28.0669 93.5656 28.1698 93.3169 28.1698H89.5617C89.3129 28.1698 89.0744 28.0669 88.8985 27.8837C88.7226 27.7004 88.6238 27.4519 88.6238 27.1928V9.58659C88.6243 9.32764 88.7232 9.07943 88.899 8.89632C89.0748 8.71321 89.3131 8.61012 89.5617 8.60962Z" fill="#F94144"/>
</svg>
