<svg width="19" height="11" viewBox="0 0 19 11" fill="none" xmlns="http://www.w3.org/2000/svg">
<path d="M10.13 2.6C10.78 2.6 11.36 2.735 11.87 3.005C12.39 3.275 12.795 3.675 13.085 4.205C13.385 4.735 13.535 5.375 13.535 6.125V11H11.84V6.38C11.84 5.64 11.655 5.075 11.285 4.685C10.915 4.285 10.41 4.085 9.77 4.085C9.13 4.085 8.62 4.285 8.24 4.685C7.87 5.075 7.685 5.64 7.685 6.38V11H5.99V6.38C5.99 5.64 5.805 5.075 5.435 4.685C5.065 4.285 4.56 4.085 3.92 4.085C3.28 4.085 2.77 4.285 2.39 4.685C2.02 5.075 1.835 5.64 1.835 6.38V11H0.125V2.735H1.835V3.68C2.115 3.34 2.47 3.075 2.9 2.885C3.33 2.695 3.79 2.6 4.28 2.6C4.94 2.6 5.53 2.74 6.05 3.02C6.57 3.3 6.97 3.705 7.25 4.235C7.5 3.735 7.89 3.34 8.42 3.05C8.95 2.75 9.52 2.6 10.13 2.6ZM18.8309 4.64V5.72H14.7959V4.73L16.4159 3.545C16.7459 3.285 16.9909 3.045 17.1509 2.825C17.3209 2.605 17.4059 2.365 17.4059 2.105C17.4059 1.875 17.3409 1.695 17.2109 1.565C17.0909 1.425 16.9359 1.355 16.7459 1.355C16.5659 1.355 16.4209 1.405 16.3109 1.505C16.2009 1.605 16.1359 1.745 16.1159 1.925H14.7659C14.7859 1.445 14.9709 1.06 15.3209 0.769999C15.6809 0.48 16.1709 0.335 16.7909 0.335C17.2009 0.335 17.5559 0.414999 17.8559 0.574999C18.1659 0.735 18.4009 0.945 18.5609 1.205C18.7309 1.465 18.8159 1.745 18.8159 2.045C18.8159 2.405 18.7059 2.725 18.4859 3.005C18.2759 3.285 17.9159 3.595 17.4059 3.935L16.3109 4.64H18.8309Z" fill="black"/>
</svg>
