<svg width="12" height="12" viewBox="0 0 12 12" fill="none" xmlns="http://www.w3.org/2000/svg">
<g clip-path="url(#clip0_2_298)">
<path d="M6.00139 0C4.2871 0 2.88574 1.40135 2.88574 3.11565C2.88574 4.82995 4.2871 6.2313 6.00139 6.2313C7.71569 6.2313 9.11704 4.82995 9.11704 3.11565C9.11704 1.40135 7.71569 0 6.00139 0Z" fill="#303030"/>
<path d="M11.3474 8.72114C11.2658 8.51705 11.1569 8.32658 11.0345 8.14971C10.4086 7.22452 9.44268 6.61228 8.35424 6.46262C8.2182 6.44903 8.06854 6.47622 7.95968 6.55786C7.38825 6.97963 6.70799 7.19731 6.00049 7.19731C5.29299 7.19731 4.61273 6.97963 4.0413 6.55786C3.93244 6.47622 3.78278 6.43541 3.64674 6.46262C2.5583 6.61228 1.57872 7.22452 0.966481 8.14971C0.844033 8.32658 0.735179 8.53067 0.653564 8.72114C0.612757 8.80278 0.626351 8.89801 0.667158 8.97965C0.776012 9.17012 0.912054 9.36062 1.0345 9.52387C1.22497 9.78239 1.42906 10.0137 1.66036 10.2313C1.85083 10.4218 2.06851 10.5987 2.28622 10.7756C3.36104 11.5783 4.65356 12 5.9869 12C7.32023 12 8.61276 11.5783 9.68757 10.7756C9.90526 10.6123 10.1229 10.4218 10.3134 10.2313C10.5311 10.0137 10.7488 9.78236 10.9393 9.52387C11.0753 9.347 11.1978 9.17012 11.3066 8.97965C11.3746 8.89801 11.3882 8.80275 11.3474 8.72114Z" fill="#303030"/>
</g>
<defs>
<clipPath id="clip0_2_298">
<rect width="12" height="12" fill="white"/>
</clipPath>
</defs>
</svg>
